<mxfile host="app.diagrams.net" modified="2022-11-12T13:55:17.965Z" agent="5.0 (Windows NT 10.0; Win64; x64) AppleWebKit/537.36 (KHTML, like Gecko) Chrome/107.0.0.0 Safari/537.36" etag="gl-pcDmOacsM3xzlU09U" version="20.5.3" type="github">
  <diagram id="C5RBs43oDa-KdzZeNtuy" name="Page-1">
    <mxGraphModel dx="868" dy="450" grid="1" gridSize="10" guides="1" tooltips="1" connect="1" arrows="1" fold="1" page="1" pageScale="1" pageWidth="827" pageHeight="1169" math="0" shadow="0">
      <root>
        <mxCell id="WIyWlLk6GJQsqaUBKTNV-0" />
        <mxCell id="WIyWlLk6GJQsqaUBKTNV-1" parent="WIyWlLk6GJQsqaUBKTNV-0" />
        <mxCell id="npbMHm5W9uEO5o3hmE4c-7" value="" style="edgeStyle=orthogonalEdgeStyle;rounded=0;orthogonalLoop=1;jettySize=auto;html=1;" edge="1" parent="WIyWlLk6GJQsqaUBKTNV-1" source="npbMHm5W9uEO5o3hmE4c-1" target="npbMHm5W9uEO5o3hmE4c-6">
          <mxGeometry relative="1" as="geometry" />
        </mxCell>
        <mxCell id="npbMHm5W9uEO5o3hmE4c-1" value="user" style="ellipse;whiteSpace=wrap;html=1;aspect=fixed;" vertex="1" parent="WIyWlLk6GJQsqaUBKTNV-1">
          <mxGeometry x="30" y="140" width="80" height="80" as="geometry" />
        </mxCell>
        <mxCell id="npbMHm5W9uEO5o3hmE4c-9" value="" style="edgeStyle=orthogonalEdgeStyle;rounded=0;orthogonalLoop=1;jettySize=auto;html=1;" edge="1" parent="WIyWlLk6GJQsqaUBKTNV-1" source="npbMHm5W9uEO5o3hmE4c-6" target="npbMHm5W9uEO5o3hmE4c-8">
          <mxGeometry relative="1" as="geometry" />
        </mxCell>
        <mxCell id="npbMHm5W9uEO5o3hmE4c-6" value="检索服务" style="whiteSpace=wrap;html=1;" vertex="1" parent="WIyWlLk6GJQsqaUBKTNV-1">
          <mxGeometry x="170" y="150" width="120" height="60" as="geometry" />
        </mxCell>
        <mxCell id="npbMHm5W9uEO5o3hmE4c-11" value="N" style="edgeStyle=orthogonalEdgeStyle;rounded=0;orthogonalLoop=1;jettySize=auto;html=1;" edge="1" parent="WIyWlLk6GJQsqaUBKTNV-1" source="npbMHm5W9uEO5o3hmE4c-8" target="npbMHm5W9uEO5o3hmE4c-10">
          <mxGeometry relative="1" as="geometry" />
        </mxCell>
        <mxCell id="npbMHm5W9uEO5o3hmE4c-15" value="Y" style="edgeStyle=orthogonalEdgeStyle;rounded=0;orthogonalLoop=1;jettySize=auto;html=1;" edge="1" parent="WIyWlLk6GJQsqaUBKTNV-1" source="npbMHm5W9uEO5o3hmE4c-8" target="npbMHm5W9uEO5o3hmE4c-14">
          <mxGeometry relative="1" as="geometry" />
        </mxCell>
        <mxCell id="npbMHm5W9uEO5o3hmE4c-8" value="是否存在检索条件" style="rhombus;whiteSpace=wrap;html=1;" vertex="1" parent="WIyWlLk6GJQsqaUBKTNV-1">
          <mxGeometry x="390" y="140" width="110" height="80" as="geometry" />
        </mxCell>
        <mxCell id="npbMHm5W9uEO5o3hmE4c-13" value="" style="edgeStyle=orthogonalEdgeStyle;rounded=0;orthogonalLoop=1;jettySize=auto;html=1;" edge="1" parent="WIyWlLk6GJQsqaUBKTNV-1" source="npbMHm5W9uEO5o3hmE4c-10" target="npbMHm5W9uEO5o3hmE4c-12">
          <mxGeometry relative="1" as="geometry" />
        </mxCell>
        <mxCell id="npbMHm5W9uEO5o3hmE4c-10" value="简易检索服务" style="whiteSpace=wrap;html=1;" vertex="1" parent="WIyWlLk6GJQsqaUBKTNV-1">
          <mxGeometry x="575" y="150" width="120" height="60" as="geometry" />
        </mxCell>
        <mxCell id="npbMHm5W9uEO5o3hmE4c-12" value="ElasticSearch服务" style="whiteSpace=wrap;html=1;" vertex="1" parent="WIyWlLk6GJQsqaUBKTNV-1">
          <mxGeometry x="575" y="290" width="120" height="60" as="geometry" />
        </mxCell>
        <mxCell id="npbMHm5W9uEO5o3hmE4c-17" value="" style="edgeStyle=orthogonalEdgeStyle;rounded=0;orthogonalLoop=1;jettySize=auto;html=1;" edge="1" parent="WIyWlLk6GJQsqaUBKTNV-1" source="npbMHm5W9uEO5o3hmE4c-14" target="npbMHm5W9uEO5o3hmE4c-16">
          <mxGeometry relative="1" as="geometry" />
        </mxCell>
        <mxCell id="npbMHm5W9uEO5o3hmE4c-14" value="组装检索条件" style="whiteSpace=wrap;html=1;" vertex="1" parent="WIyWlLk6GJQsqaUBKTNV-1">
          <mxGeometry x="385" y="290" width="120" height="60" as="geometry" />
        </mxCell>
        <mxCell id="npbMHm5W9uEO5o3hmE4c-18" style="edgeStyle=orthogonalEdgeStyle;rounded=0;orthogonalLoop=1;jettySize=auto;html=1;entryX=0.5;entryY=1;entryDx=0;entryDy=0;" edge="1" parent="WIyWlLk6GJQsqaUBKTNV-1" source="npbMHm5W9uEO5o3hmE4c-16" target="npbMHm5W9uEO5o3hmE4c-12">
          <mxGeometry relative="1" as="geometry" />
        </mxCell>
        <mxCell id="npbMHm5W9uEO5o3hmE4c-16" value="复杂检索服务" style="whiteSpace=wrap;html=1;" vertex="1" parent="WIyWlLk6GJQsqaUBKTNV-1">
          <mxGeometry x="385" y="430" width="120" height="60" as="geometry" />
        </mxCell>
      </root>
    </mxGraphModel>
  </diagram>
</mxfile>
